<?xml version="1.0" encoding="utf-8"?>
<!-- Generator: Adobe Illustrator 27.5.0, SVG Export Plug-In . SVG Version: 6.00 Build 0)  -->
<svg version="1.1" id="Layer_1" xmlns="http://www.w3.org/2000/svg" xmlns:xlink="http://www.w3.org/1999/xlink" x="0px" y="0px"
	 viewBox="0 0 1147.5 276.7" style="enable-background:new 0 0 1147.5 276.7;" xml:space="preserve">
<style type="text/css">
	.st0{fill:#D81F26;}
</style>
<g>
	<path class="st0" d="M333.1,100.7c19.2-0.1,38.5-0.4,57.7-0.4c0,14.5,0,29-0.1,43.6c-19.3-0.2-38.5-0.2-57.8,0.3
		c-0.1,21.5-0.5,43.1-0.9,64.6c25.3-0.9,50.7-1.4,76-2.4c0.4,12.7,0.6,25.3-0.1,37.9c-38.3,1.8-76.6,2.5-117.5,4.4
		c-2.6-82.6-0.8-165.3-2.4-248c40-0.6,79.9-1.5,119.9-2.2c0.2,14.4,0.5,28.8,0.7,43.2c-25.5,0.5-51,1-76.5,1.3
		C332.7,62.2,333,81.5,333.1,100.7z M487.3,99c19.7,0,39.5,0,59.2,0c0,14.4,0,28.8,0,43.2c-19.7,0-39.5,0-59.2,0
		c0,32.7,0,65.4,0,98.1c-14.1,0-28.3,0-42.4,0c0-79.9,0-159.8,0-239.7c40.3,0,80.5,0,120.8,0c0,14.4,0,28.8,0,43.2
		c-26.1,0-52.2,0-78.4,0C487.3,62.2,487.3,80.6,487.3,99z M636.5,204.4c24.5,0.9,46.4,2,71.5,5.3c0.4,13,1.1,26,0.6,39.1
		c-38.7-1.2-77.4-4-116.1-5.2c0.5-80.8,2-161.3-0.1-242c14.4-0.5,28.8-1.1,43.2-1.1C637.5,68.4,638.9,136.6,636.5,204.4
		C636.3,209.5,636.4,205.3,636.5,204.4z M745.9,251.9c14.2,0.8,28.3,1.8,42.4,3.2c0-84.9,0-169.7,0-254.6c-14.1,0-28.3,0-42.4,0
		C745.9,84.4,745.9,168.2,745.9,251.9z M1143.1,0.5c-18.5,45.7-37.6,91.4-56.2,137.1c17.3,46.5,40.1,90.9,53.1,138.9
		c-15.3-2-30.6-3.6-46.1-4.6c-12.2-25.1-22-51.1-32.1-77c-10.4,24.7-20.7,49.4-31.1,74.1c-15.5-2-31-3.7-46.5-5.4
		c18.4-42.5,36.4-85.1,55.3-127.4c-17.1-45.2-32.8-90.9-51.1-135.5c14.7,0.1,29.4,0.4,44.1,0.1c12.2,25.3,21.9,51.5,31.7,77.8
		c10.6-26,21.1-52,31.6-78C1111.4,0.7,1127.8,0.6,1143.1,0.5C1147.1,0.5,1144.1,0.2,1143.1,0.5z"/>
</g>
<g>
	<g>
		<path class="st0" d="M127,122.6c-7,45.7-13.6,91.6-18.4,137.6c-25.5,2.2-50.3,7.5-74.6,15.5C31.6,183.3,15.4,92.2,2.1,0.8
			C18.7,1,35.3,1.2,51.9,1.4C60.3,70.1,69,138.7,78.4,207.2c8-68.7,17.3-137.3,25.6-206c16.4,0,32.8,0,49.2,0
			c8.6,68.3,16.4,136.7,25.5,204.9c8.8-68.5,16.7-137.1,26.7-205.4c14.8,0.2,29.7,0.5,44.5,0.7c-12.3,83.4-22.1,167.1-36.9,250.2
			c-23.7,1.6-47.3,3.4-71,5.1C139.1,212,132,167.2,127,122.6z"/>
	</g>
</g>
<g>
	<g>
		<path class="st0" d="M957.3,1.1c-14.3,42.1-28.6,84.3-42.8,126.4c15.5,45.3,30,91,47.6,135.5c-15-1.5-29.9-2.6-44.9-3.3
			c-11-33.8-22.5-67.4-33.5-101.2c-11,33.7-21.1,67.6-34,100.6c-13.1-0.6-26.1-1.7-39.1-2.2c19.8-41.5,32.2-85.8,46.7-129.3
			c-14.3-42.1-28.6-84.3-42.8-126.4c14.1,0,28.3,0,42.4,0c10.3,32,20.6,64,30.9,96c10.6-32,21.1-64,31.6-96
			C932,1.1,944.6,1.1,957.3,1.1z"/>
	</g>
</g>
</svg>
